<svg xmlns="http://www.w3.org/2000/svg" viewBox="0 0 9816 2384" aria-hidden="true" focusable="false">
    <title>Logo Flouflix</title>
    <g id="logo_flouflix"><path fill="#e50914" d="
        M 0, 0
            h 1175.70
            v 418.74
            h -754.66
            v 541.84
            h 570.60
            v 415.29
            h -570.60
            v 957.13
            l -421.04, 51
            
        M 1442, 0
            h 366
            v 1762
            l 651, -45
            v 362
            l -1017, 75

        M 2639, 372
            c 0 0, 0 -372, 372 -372
            h 360
            c 0 0, 372 0, 372 372
            v 1294
            c 0 0, 0 372, -372 372
            l -330, 15
            c 0 0, -372 0, -372 -372
            v -75
            h 372
            c 0 0, 0 110, 110 110
            l 100, -2
            c 0 0, 110 0, 110 -110
            v -1157
            c 0 0, 0 -110, -110 -110
            h -100
            c 0 0, -110 0, -110 110
            v 1157
            h -372

        M 3997, 0
            h 370
            v 1500
            c 0 0, 0 174, 168.5 174
            c 0 0, 168.5 0, 168.5 -174
            v -1500
            h 370
            v 1700
            c 0 0, 0 328, -370 328
            l -337, 7
            c 0 0, -370 0, -370 -321

        M 5308, 0
            h 1022
            v 364
            h -656
            v 471
            h 496
            v 361
            h -496
            v 832
            h -366

        M 6563, 0
            h 367
            v 1700
            l 628, 36
            v 361
            l -994, -50

        M 7838, 0
            h 366
            v 2148
            l -366, -30

        M 8515, 0
            h 397
            l 239, 614
            l 265, -614
            h 403
            l -477, 1105
            l 477, 1229
            l -418, -55
            l -268, -688
            l -270, 624
            l -385, -40
            l 468, -1076
    "></path></g>
</svg>